<svg xmlns="http://www.w3.org/2000/svg" viewBox="0 0 76.63 102.06"><defs><style>.cls-1{fill:#6b7fd7;}</style></defs><title>fire</title><g id="Layer_2" data-name="Layer 2"><g id="Layer_1-2" data-name="Layer 1"><g id="Fire"><path class="cls-1" d="M76.63,59.92c-1.28-15.33-8.09-24.69-14.48-33.21S51.08,11.81,51.08,2c0-.85-.42-1.7-1.27-1.7a1.88,1.88,0,0,0-2.13,0,55.26,55.26,0,0,0-20,29,116,116,0,0,0-2.13,21.28C17,48.85,14.9,35.65,14.9,35.65c0-.85-1.28-1.7-2.55-1.7h-.43c-.43.42-11.07,6-11.92,27.67v2.13a38.15,38.15,0,0,0,38.31,38.31h0A38.16,38.16,0,0,0,76.63,63.75ZM25.54,84.18v-.85a17.69,17.69,0,0,1,1.28-6.81,7.83,7.83,0,0,0,7.24,5.11,2,2,0,0,0,2.12-2.13A37.7,37.7,0,0,1,37,69.71a18.5,18.5,0,0,1,4.25-8.09,29.58,29.58,0,0,0,4.26,8.09A25.85,25.85,0,0,1,51.08,82.9v1.28A13.55,13.55,0,0,1,38.31,97.8C31.08,97.38,25.12,91.42,25.54,84.18Z"/></g></g></g></svg>