<svg xmlns="http://www.w3.org/2000/svg" viewBox="0 0 107.07 107.07"><defs><style>.cls-1{fill:#6b7fd7;}</style></defs><title>flood</title><g id="Layer_2" data-name="Layer 2"><g id="Layer_1-2" data-name="Layer 1"><path class="cls-1" d="M13.38,82.93c1.08.48,2.07,1,3,1.42A19.33,19.33,0,0,0,26.74,87a19.37,19.37,0,0,0,10.38-2.64c.93-.46,1.93-1,3-1.43V60.22H66.92V82.94c1.07.47,2,1,3,1.41A19.49,19.49,0,0,0,80.28,87a19.47,19.47,0,0,0,10.4-2.64c.92-.46,1.91-.95,3-1.42V53.53h13.38L93.68,40.15h0V13.38H80.3V26.77L53.53,0,0,53.53H13.38Z"/><path class="cls-1" d="M90.68,91a19.38,19.38,0,0,1-10.4,2.64A19.4,19.4,0,0,1,69.87,91,32.59,32.59,0,0,0,53.49,87,32.55,32.55,0,0,0,37.12,91a19.28,19.28,0,0,1-10.38,2.64,19.34,19.34,0,0,1-10.37-2.63A32.43,32.43,0,0,0,0,87v13.38A19.33,19.33,0,0,1,10.37,103a32.43,32.43,0,0,0,16.37,4.06A32.43,32.43,0,0,0,43.11,103a19.37,19.37,0,0,1,10.38-2.64A19.47,19.47,0,0,1,63.89,103a32.49,32.49,0,0,0,16.39,4.06A32.47,32.47,0,0,0,96.66,103a19.49,19.49,0,0,1,10.41-2.64V87A32.61,32.61,0,0,0,90.68,91Z"/></g></g></svg>