<svg xmlns="http://www.w3.org/2000/svg" viewBox="0 0 76.43 89.17"><defs><style>.cls-1{fill:#6b7fd7;}</style></defs><title>storm</title><g id="Layer_2" data-name="Layer 2"><g id="Layer_1-2" data-name="Layer 1"><path class="cls-1" d="M76.43,0H0C0,13.9,12.74,14.86,12.74,31.85A32.63,32.63,0,0,1,10.3,44.59H0V51H31.85v6.37H6.73a54,54,0,0,0-.36,6.37c0,17,18.26,25.48,31.85,25.48.21-4.66.57-8.87,1-12.74H31.85V70.06H51V63.69H41.57c3.23-13,8.25-20.24,13.5-25.47H38.22V31.85H76.43V25.48H68.88C73.31,20.26,76.43,13.24,76.43,0Z"/></g></g></svg>